<svg width="212" height="254" viewBox="0 0 212 254" fill="none" xmlns="http://www.w3.org/2000/svg">
<g clip-path="url(#clip0_102_1243)">
<path d="M121.132 142.07C123.658 155.378 123.422 169.227 120.132 182.743C107.93 232.857 60.5515 250.366 57.126 251.565" stroke="black" stroke-width="6.09506" stroke-miterlimit="10" stroke-linecap="round"/>
<path d="M88.9307 85.9336C100.908 96.4294 109.966 109.394 115.692 123.572" stroke="black" stroke-width="6.09506" stroke-miterlimit="10" stroke-linecap="round"/>
<path d="M93.8892 40.1035C85.3307 54.7718 75.6935 67.7045 60.7269 76.9621C52.3184 82.2798 42.6848 87.0213 33.3226 90.0344C25.8393 92.3175 16.1056 95.0658 9.4939 90.8253C3.41796 86.871 1.18904 78.8122 3.77515 71.8878C5.38969 67.0604 9.3403 62.8557 13.6624 59.8461C26.5787 51.2005 41.9097 47.8259 56.7227 48.8565C70.7784 49.948 84.5556 56.3821 95.5073 65.3857" stroke="black" stroke-width="6.09506" stroke-miterlimit="10" stroke-linecap="round"/>
<path d="M90.635 142.07C88.1096 155.378 88.3453 169.227 91.6351 182.743C103.837 232.857 151.216 250.366 154.641 251.565" stroke="black" stroke-width="6.09506" stroke-miterlimit="10" stroke-linecap="round"/>
<path d="M122.836 85.9336C110.859 96.4294 101.8 109.394 96.0742 123.572" stroke="black" stroke-width="6.09506" stroke-miterlimit="10" stroke-linecap="round"/>
<path d="M117.878 40.1035C126.436 54.7718 136.074 67.7045 151.04 76.9621C159.449 82.2798 169.082 87.0213 178.444 90.0344C185.928 92.3175 195.661 95.0658 202.273 90.8253C208.349 86.871 210.578 78.8122 207.992 71.8878C206.377 67.0604 202.427 62.8557 198.105 59.8461C185.188 51.2005 169.857 47.8259 155.044 48.8565C140.989 49.948 127.211 56.3821 116.26 65.3857" stroke="black" stroke-width="6.09506" stroke-miterlimit="10" stroke-linecap="round"/>
<path d="M106.18 21.0836C111.284 21.0836 115.421 16.9388 115.421 11.826C115.421 6.71313 111.284 2.56836 106.18 2.56836C101.077 2.56836 96.9395 6.71313 96.9395 11.826C96.9395 16.9388 101.077 21.0836 106.18 21.0836Z" fill="black" stroke="black" stroke-width="6.09506" stroke-miterlimit="10"/>
</g>
<defs>
<clipPath id="clip0_102_1243">
<rect width="210.983" height="253.648" fill="white" transform="translate(0.391602 0.242188)"/>
</clipPath>
</defs>
</svg>
